<svg xmlns="http://www.w3.org/2000/svg" viewBox="0 0 16 16">
<path fill="#C0C0C0" d="M0,8a22.1,22.1,0,0,0,2.12,2.4c1.43,1.17,3.33,2.46,5.15,2.45a9.7,9.7,0,0,0,6.24-2.18c.68-.6,2.49-2.09,2.49-3s-1.42-2.41-2.54-3.21A10.61,10.61,0,0,0,8.12,2.85a7.76,7.76,0,0,0-5.42,2A18.66,18.66,0,0,0,0,8ZM.77,8a12.86,12.86,0,0,1,1.7-1.6,7.53,7.53,0,0,1,4.7-1.69,7.19,7.19,0,0,1,4.62,1.56c.63.51,1.78,1.42,1.78,2.08s-1.11,1.6-1.66,2.09A7.63,7.63,0,0,1,7.17,12,7.51,7.51,0,0,1,2.46,9.9,9.56,9.56,0,0,1,.77,8Zm2.16-.19a2.67,2.67,0,1,0,2.9-2.47,3,3,0,0,0-.79,0,1.34,1.34,0,0,1,.67,1.28A1.32,1.32,0,0,1,4.27,7.86,1.33,1.33,0,0,1,3.12,7a2.48,2.48,0,0,0-.18.77Z" />
</svg>