<svg xmlns="http://www.w3.org/2000/svg" viewBox="0 0 16 16">
    <path fill="#707070" d="M8,.28A7.88,7.88,0,0,0,5.53,15.63c.4.08.54-.17.54-.38s0-.68,0-1.34c-2.19.48-2.65-1.05-2.65-1.05a2.13,2.13,0,0,0-.88-1.16c-.71-.48.06-.47.06-.47a1.62,1.62,0,0,1,1.2.81,1.69,1.69,0,0,0,2.3.65,1.62,1.62,0,0,1,.5-1C4.84,11.44,3,10.77,3,7.75a3,3,0,0,1,.81-2.12,2.8,2.8,0,0,1,.07-2.08s.66-.21,2.16.81a7.32,7.32,0,0,1,3.94,0c1.5-1,2.16-.81,2.16-.81a2.88,2.88,0,0,1,.08,2.08A3.07,3.07,0,0,1,13,7.75c0,3-1.84,3.69-3.59,3.88A1.88,1.88,0,0,1,10,13.09c0,1.05,0,1.9,0,2.16s.14.45.55.37A7.87,7.87,0,0,0,8,.28Z" />
</svg>